# xmcd
#
# Track frame offsets: 
#        150
#        18714
#        36080
#        60239
#        76528
#        95482
#        113093
#        131872
#        154756
#        174555
#        195101
#        218950
#
# Disc length: 3303 seconds
#
# Revision: 0
# Processed by: cddbd v1.5.2PL0 Copyright (c) Steve Scherf et al.
# Submitted via: ExactAudioCopy v1.0b3
#
DISCID=920ce50c
DTITLE=Drew Womack - Sunshine To Rain
DYEAR=2012
DGENRE=Country
TTITLE0=There You Go Again
TTITLE1=Broken Angel
TTITLE2=Through the Night
TTITLE3=I Know Love
TTITLE4=Sunshine to Rain
TTITLE5=Butterfly
TTITLE6=This Heart
TTITLE7=Rescue Me
TTITLE8=The Way Love Rolls
TTITLE9=Say Alright
TTITLE10=The High Road Down
TTITLE11=Slow Burn
EXTD=
EXTT0=
EXTT1=
EXTT2=
EXTT3=
EXTT4=
EXTT5=
EXTT6=
EXTT7=
EXTT8=
EXTT9=
EXTT10=
EXTT11=
PLAYORDER=
